# AST/ASF file generated using VICON BodyLanguage
# -----------------------------------------------
:version 1.10
:name VICON
:units
  mass 1.0
  length 0.45
  angle deg
:documentation
   .ast/.asf automatically generated from VICON data using
   VICON BodyBuilder and BodyLanguage model FoxedUp or BRILLIANT.MOD
:root
   order TX TY TZ RX RY RZ
   axis XYZ
   position 0 0 0  
   orientation 0 0 0 
:bonedata
  begin
     id 1 
     name lhipjoint
     direction 0.756833 -0.6125 0.228138 
     length 2.53827 
     axis 0 0 0  XYZ
  end
  begin
     id 2 
     name lfemur
     direction 0.34202 -0.939693 0  
     length 6.51821  
     axis 0 0 20  XYZ
    dof rx ry rz
    limits (-160.0 20.0)
           (-70.0 70.0)
           (-60.0 70.0)
  end
  begin
     id 3 
     name ltibia
     direction 0.34202 -0.939693 0   
     length 6.99902   
     axis 0 0 20   XYZ
    dof rx
    limits (-10.0 170.0)
  end
  begin
     id 4 
     name lfoot
     direction 0.0951515 -0.261427 0.960522   
     length 1.92102   
     axis -90 7.62852e-016 20   XYZ
    dof rx rz
    limits (-45.0 90.0)
           (-70.0 20.0)
  end
  begin
     id 5 
     name ltoes
     direction 1.53539e-011 -4.21781e-011 1   
     length 0.964376   
     axis -90 7.62852e-016 20   XYZ
    dof rx
    limits (-90.0 20.0)
  end
  begin
     id 6 
     name rhipjoint
     direction -0.752153 -0.617542 0.230017   
     length 2.51754  
     axis 0 0 0  XYZ 
  end
  begin
     id 7 
     name rfemur
     direction -0.34202 -0.939693 0   
     length 6.82377   
     axis 0 0 -20   XYZ
    dof rx ry rz
    limits (-160.0 20.0)
           (-70.0 70.0)
           (-70.0 60.0)
  end
  begin
     id 8 
     name rtibia
     direction -0.34202 -0.939693 0   
     length 6.98689   
     axis 0 0 -20   XYZ
    dof rx
    limits (-10.0 170.0)
 end
 begin
     id 9 
     name rfoot
     direction -0.0900426 -0.24739 0.964723   
     length 2.03215  
     axis -90 -7.62852e-016 -20   XYZ
    dof rx rz
    limits (-45.0 90.0)
           (-20.0 70.0)
  end
  begin
     id 10 
     name rtoes
     direction -1.53466e-011 -4.22206e-011 1   
     length 1.0197   
     axis -90 -7.62852e-016 -20   XYZ
    dof rx
    limits (-90.0 20.0)
  end
  begin
     id 11 
     name lowerback
     direction 0.0184183 0.995705 -0.0907278   
     length 2.019   
     axis 0 0 0   XYZ
    dof rx ry rz
    limits (-20.0 45.0)
           (-30.0 30.0)
           (-30.0 30.0)
  end
  begin
     id 12 
     name upperback
     direction 0.00281055 0.998777 0.0493607   
     length 1.99623   
     axis 0 0 0   XYZ
    dof rx ry rz
    limits (-20.0 45.0)
           (-30.0 30.0)
           (-30.0 30.0)
  end
  begin
     id 13 
     name thorax
     direction -0.00665507 0.995706 0.092331   
     length 2.02811   
     axis 0 0 0   XYZ
    dof rx ry rz
    limits (-20.0 45.0)
           (-30.0 30.0)
           (-30.0 30.0)
  end
  begin
     id 14 
     name lowerneck
     direction -0.0960965 0.994358 0.0449225   
     length 1.71265   
     axis 0 0 0   XYZ
    dof rx ry rz
    limits (-20.0 45.0)
           (-30.0 30.0)
           (-30.0 30.0)
  end
  begin
     id 15 
     name upperneck
     direction 0.13642 0.985357 -0.102278   
     length 1.73016   
     axis 0 0 0   XYZ
    dof rx ry rz
    limits (-20.0 45.0)
           (-30.0 30.0)
           (-30.0 30.0)
  end
  begin
     id 16
     name head
     direction 0.0556079 0.997632 -0.040479  
     length 1.74275  
     axis 0 0 0   XYZ
    dof rx ry rz
    limits (-20.0 45.0)
           (-30.0 30.0)
           (-30.0 30.0)
  end
  begin
     id 17 
     name lclavicle
     direction 0.90877 0.417247 -0.00652364  
     length 3.25514  
     axis 0 0 0   XYZ
    dof ry rz
    limits (-20.0 10.0)
           (0.0 20.0)
  end
  begin
     id 18 
     name lhumerus
     direction 1 -4.48949e-011 8.31417e-028   
     length 4.84834   
     axis 180 -30 -90   XYZ
    dof rx ry rz
    limits (-60.0 90.0)
           (-90.0 90.0)
           (-90.0 90.0)
  end
  begin
     id 19
     name lradius
     direction 1 -4.48984e-011 3.45616e-027   
     length 2.99713   
     axis 180 -30 -90   XYZ
    dof rx
    limits (-10.0 170.0)
  end
  begin
     id 20
     name lwrist
     direction 1 -4.4891e-011 4.0479e-027   
     length 1.49857   
     axis -1.61768e-015 90 90   XYZ
    dof ry
    limits (-180.0 0.0)
 end
  begin
     id 21 
     name lhand
     direction 1 -4.49025e-011 8.0958e-027   
     length 0.693987   
     axis -5.16581e-015 90 90   XYZ
    dof rx rz
    limits (-90.0 90.0)
           (-45.0 45.0)
  end
  begin
     id 22 
     name lfingers
     direction 1 -4.4888e-011 1.61916e-026   
     length 0.55951   
     axis -1.03316e-014 90 90   XYZ
    dof rx
    limits (0.0 90.0)
  end
  begin
     id 23
     name lthumb
     direction 0.707107 -6.3493e-011 0.707107   
     length 0.803348   
     axis -90 45 2.85299e-015   XYZ
    dof rx rz
    limits (-45.0 45.0)
           (-45.0 45.0)
  end
  begin
     id 24 
     name rclavicle
     direction -0.906655 0.41906 0.0486307   
     length 3.3311  
     axis 0 0 0   XYZ 
    dof ry rz
    limits (-10.0 20.0)
           (-20.0 0.0)
  end
  begin
     id 25 
     name rhumerus
     direction -1 -4.48959e-011 6.37764e-018  
     length 4.93457   
     axis 180 30 90   XYZ
    dof rx ry rz
    limits (-90.0 60.0)
           (-90.0 90.0)
           (-90.0 90.0)
  end
  begin
     id 26 
     name rradius
     direction -1 -4.48957e-011 2.20847e-027   
     length 3.3443   
     axis 180 30 90   XYZ
    dof rx
    limits (-10.0 170.0)
  end
  begin
     id 27 
     name rwrist
     direction -1 -4.49008e-011 4.0479e-027   
     length 1.67215   
     axis -1.61768e-015 -90 -90   XYZ
    dof ry
    limits (-180.0 0.0)
  end
  begin
     id 28
     name rhand
     direction -1 -4.49013e-011 8.0958e-027   
     length 0.677363   
     axis -5.16581e-015 -90 -90   XYZ
    dof rx rz
    limits (-90.0 90.0)
           (-45.0 45.0)
  end
  begin
     id 29
     name rfingers
     direction -1 -4.48832e-011 1.61916e-026   
     length 0.546107   
     axis -1.03316e-014 -90 -90   XYZ
    dof rx
    limits (0.0 90.0)
  end
  begin
     id 30
     name rthumb
     direction -0.707107 -6.34895e-011 0.707107   
     length 0.784104   
     axis -90 -45 -2.85299e-015   XYZ
    dof rx rz
    limits (-45.0 45.0)
           (-45.0 45.0)
  end
:hierarchy
  begin
    root lhipjoint rhipjoint lowerback
    lhipjoint lfemur
    lfemur ltibia
    ltibia lfoot
    lfoot ltoes
    rhipjoint rfemur
    rfemur rtibia
    rtibia rfoot
    rfoot rtoes
    lowerback upperback
    upperback thorax
    thorax lowerneck lclavicle rclavicle
    lowerneck upperneck
    upperneck head
    lclavicle lhumerus
    lhumerus lradius
    lradius lwrist
    lwrist lhand lthumb
    lhand lfingers
    rclavicle rhumerus
    rhumerus rradius
    rradius rwrist
    rwrist rhand rthumb
    rhand rfingers
  end

#!OML:ASF H:\Terrain\Patient Classification 1\junglegym\FridayTest\junglegym.ASF
:FULLY-SPECIFIED
:DEGREES
578
root 6.79604 20.5504 1.41093 161.945 -82.1954 -125.935
lowerback 17.8575 0.412042 4.80158
upperback -3.04826 1.50673 -1.0687
thorax -13.3726 0.263099 -4.37234
lowerneck 0.0668316 1.19662 -5.43831
upperneck 32.563 -1.04619 4.99862
head 10.4038 -1.16294 2.57754
rclavicle 1.78906e-014 1.27222e-014
rhumerus 102.448 -24.3971 -70.7877
rradius 36.4605
rwrist 12.3217
rhand -25.8858 44.986
rfingers 7.12502
rthumb 0.656051 15.0073
lclavicle 1.78906e-014 1.27222e-014
lhumerus 106.021 16.8377 64.8617
lradius 42.3487
lwrist -35.3808
lhand -20.7002 21.3985
lfingers 7.12502
lthumb 5.66379 51.3028
rfemur -33.5038 6.80991 29.6228
rtibia 36.0233
rfoot -4.80818 -1.84027
rtoes 10.0508
lfemur -46.978 -17.9764 -7.3718
ltibia 37.4123
lfoot -5.54069 16.5956
ltoes -34.7907
579
root 6.74511 20.4483 1.39094 177.045 -83.003 -141.506
lowerback 18.3907 0.512127 2.4876
upperback -3.0754 1.04917 -1.6022
thorax -13.7905 0.192656 -3.53623
lowerneck -0.165911 1.13189 -5.59038
upperneck 32.5481 -1.17954 5.29756
head 10.4505 -1.2059 2.70329
rclavicle -2.3059e-014 -1.07344e-014
rhumerus 102.812 -24.3378 -71.113
rradius 35.9833
rwrist 12.6914
rhand -25.6491 45.1776
rfingers 7.12502
rthumb 0.884663 15.1997
lclavicle -2.3059e-014 -1.07344e-014
lhumerus 106.354 17.1034 64.573
lradius 41.9286
lwrist -35.0273
lhand -20.2375 22.0242
lfingers 7.12502
lthumb 6.11052 51.9161
rfemur -35.4538 6.99663 27.393
rtibia 36.1476
rfoot -5.58005 -2.90678
rtoes 9.29427
lfemur -48.444 -19.321 -8.44749
ltibia 37.1194
lfoot -5.9129 17.4464
ltoes -31.1775
580
root 6.68642 20.3211 1.39102 195.469 -82.8839 -160.363
lowerback 18.8015 0.715032 0.134402
upperback -3.10178 0.673098 -2.17037
thorax -14.1139 0.1686 -2.73211
lowerneck -0.288291 1.08956 -5.60727
upperneck 32.3532 -1.18206 5.25543
head 10.3991 -1.20338 2.68797
rclavicle -6.75868e-015 3.61788e-014
rhumerus 103.137 -24.324 -71.2045
rradius 35.5923
rwrist 12.7434
rhand -25.4513 45.4491
rfingers 7.12502
rthumb 1.07572 15.472
lclavicle -6.75868e-015 3.61788e-014
lhumerus 106.552 17.5278 64.2255
lradius 41.5628
lwrist -34.6703
lhand -20.4775 21.8541
lfingers 7.12502
lthumb 5.87879 51.7526
rfemur -37.6132 7.41769 24.8491
rtibia 36.4795
rfoot -6.43231 -3.94613
rtoes 7.23185
lfemur -49.5947 -19.4906 -10.3015
ltibia 36.7198
lfoot -5.97765 17.4694
ltoes -30.3213
581
root 6.59832 20.1874 1.41852 193.561 -82.4918 -158.843
lowerback 18.9146 0.783857 0.440972
upperback -3.07211 0.842567 -2.14813
thorax -14.1343 0.222328 -2.93643
lowerneck -0.399113 1.0342 -5.65529
upperneck 32.2047 -1.19957 5.17892
head 10.365 -1.21707 2.66513
rclavicle 5.96354e-015 3.93594e-014
rhumerus 103.484 -24.4011 -71.0493
rradius 35.1327
rwrist 12.447
rhand -25.4614 45.3674
rfingers 7.12502
rthumb 1.06595 15.3904
lclavicle 5.96354e-015 3.93594e-014
lhumerus 106.674 17.8681 63.9439
lradius 41.1702
lwrist -34.4633
lhand -20.7775 21.7824
lfingers 7.12502
lthumb 5.5892 51.6887
rfemur -39.3283 8.41132 24.7424
rtibia 36.7325
rfoot -7.98202 -4.51079
rtoes 13.063
lfemur -50.5909 -18.957 -9.71755
ltibia 36.4507
lfoot -4.95045 17.5089
ltoes -33.815
582
root 6.47988 20.0692 1.44088 189.552 -83.3411 -155.561
lowerback 19.1267 0.34744 1.61119
upperback -2.91119 0.552732 -2.09381
thorax -14.0785 -0.000709187 -3.45785
lowerneck -0.609232 0.94563 -5.79128
upperneck 32.1937 -1.35318 5.41153
head 10.4113 -1.2753 2.76153
rclavicle 1.27222e-014 -1.55052e-014
rhumerus 103.643 -24.6542 -70.8339
rradius 34.7566
rwrist 12.0468
rhand -25.4731 44.9817
rfingers 7.12502
rthumb 1.05459 15.0046
lclavicle 1.27222e-014 -1.55052e-014
lhumerus 106.864 18.1992 63.5311
lradius 40.714
lwrist -33.9911
lhand -20.7605 22.0709
lfingers 7.12502
lthumb 5.60563 51.9767
rfemur -40.2996 8.92974 24.824
rtibia 36.7362
rfoot -10.1376 -4.50347
rtoes 24.809
lfemur -51.6661 -19.5989 -8.65204
ltibia 36.3467
lfoot -3.95126 17.2902
ltoes -34.4521
583
root 6.35703 19.966 1.41309 190.326 -83.101 -157.386
lowerback 19.4697 0.511165 1.02156
upperback -2.65375 0.62515 -2.09783
thorax -13.9791 0.082312 -3.14796
lowerneck -0.723802 0.879308 -5.89936
upperneck 32.0386 -1.46957 5.65693
head 10.3817 -1.30891 2.85796
rclavicle 8.74653e-015 -3.57812e-015
rhumerus 103.586 -24.9133 -70.8251
rradius 34.6886
rwrist 11.9064
rhand -25.387 44.6817
rfingers 7.12502
rthumb 1.13781 14.7049
lclavicle 8.74653e-015 -3.57812e-015
lhumerus 107.362 18.3518 63.453
lradius 40.0974
lwrist -33.645
lhand -20.55 22.3523
lfingers 7.12502
lthumb 5.80887 52.2526
rfemur -40.7622 9.31798 24.658
rtibia 36.257
rfoot -10.7583 -4.36236
rtoes 23.0359
lfemur -52.0848 -19.3885 -8.58651
ltibia 36.6589
lfoot -4.68731 16.7867
ltoes -30.0008
584
root 6.25228 19.839 1.4362 189.31 -84.1391 -157.346
lowerback 20.0185 0.0716985 1.80219
upperback -2.45167 0.236381 -2.08053
thorax -14.0899 -0.158703 -3.46315
lowerneck -0.840075 0.77417 -5.84265
upperneck 31.9958 -1.57513 5.5561
head 10.3953 -1.35561 2.80188
rclavicle 1.98785e-015 1.19271e-015
rhumerus 103.491 -25.1339 -70.6533
rradius 34.5792
rwrist 11.8299
rhand -25.3031 44.45
rfingers 7.12502
rthumb 1.21883 14.4737
lclavicle 1.98785e-015 1.19271e-015
lhumerus 107.656 18.4275 63.4383
lradius 39.6988
lwrist -33.1674
lhand -20.4549 22.3515
lfingers 7.12502
lthumb 5.90064 52.2493
rfemur -41.5815 8.12671 24.9208
rtibia 35.844
rfoot -10.6936 -4.85226
rtoes 13.3427
lfemur -53.2581 -20.3087 -7.94174
ltibia 36.8932
lfoot -4.45105 16.4847
ltoes -29.8752
